:FULLY-SPECIFIED
:FORCE-ALL-JOINTS-BE-3DOF
:DEGREES
453
root 10.7883 17.446 27.6311 5.37312 0.845014 1.3174
lfemur -19.1402 3.64448 -27.3764
ltibia 26.5803 0 0
lfoot -13.0683 4.97132 0
ltoes 0.129003 0 0
rfemur -20.5591 -1.88536 18.3921
rtibia 64.8535 0 0
rfoot -9.78932 -8.3711 0
rtoes -19.6471 0 0
lowerback -5.10556 -1.21824 -2.01714
upperback -1.69987 -1.54687 1.6228
thorax 1.216 -0.771897 2.70593
lowerneck -20.9088 -3.86264 -11.4715
upperneck 24.3811 -4.56378 10.4232
head 11.9994 -1.79678 5.13427
lclavicle 1.83504e-15 -8.45204e-15 0
lhumerus -25.3044 -12.7877 89.7596
lradius 20.8986 0 0
lwrist -4.20261 0 0
lhand -11.4746 -23.6972 0
lfingers 7.12502 0 0
lthumb 14.5632 5.77031 0
rclavicle 1.83504e-15 -8.45204e-15 0
rhumerus -45.4989 10.7439 -88.3614
rradius 34.7073 0 0
rwrist -13.1971 0 0
rhand -33.1155 -26.7718 0
rfingers 7.12502 0 0
rthumb -6.32563 -56.6549 0
454
root 10.7954 17.4384 27.745 5.21296 1.05265 1.39758
lfemur -18.4868 3.64254 -27.4483
ltibia 26.59 0 0
lfoot -13.4833 4.85476 0
ltoes 0.416388 0 0
rfemur -21.4974 -1.74166 18.3603
rtibia 64.5433 0 0
rfoot -11.0843 -8.43446 0
rtoes -19.1313 0 0
lowerback -5.02538 -1.43738 -2.1744
upperback -1.54191 -1.8339 1.6814
thorax 1.3586 -0.919264 2.83607
lowerneck -21.1085 -3.74474 -11.3466
upperneck 24.4111 -4.4179 10.4212
head 12.0275 -1.71531 5.13867
lclavicle -5.23366e-15 -1.24737e-14 0
lhumerus -24.2699 -13.628 89.5845
lradius 21.1549 0 0
lwrist -3.74794 0 0
lhand -11.7947 -23.8063 0
lfingers 7.12502 0 0
lthumb 14.2547 5.68294 0
rclavicle -5.23366e-15 -1.24737e-14 0
rhumerus -45.4066 10.8876 -88.2698
rradius 35.0116 0 0
rwrist -13.7061 0 0
rhand -32.4867 -28.1202 0
rfingers 7.12502 0 0
rthumb -5.71856 -58.0201 0
455
root 10.8025 17.4308 27.8589 5.05331 1.26699 1.50418
lfemur -17.8262 3.64678 -27.55
ltibia 26.5977 0 0
lfoot -13.8931 4.72429 0
ltoes 0.755179 0 0
rfemur -22.3978 -1.60612 18.2808
rtibia 64.1289 0 0
rfoot -12.3013 -8.48518 0
rtoes -18.5109 0 0
lowerback -4.95399 -1.65408 -2.35403
upperback -1.39807 -2.11636 1.72972
thorax 1.49231 -1.06412 2.96818
lowerneck -21.2499 -3.62443 -11.2429
upperneck 24.432 -4.27244 10.4324
head 12.0418 -1.63602 5.15145
lclavicle -1.21125e-14 -1.60206e-14 0
lhumerus -23.2912 -14.445 89.3904
lradius 21.4376 0 0
lwrist -3.25692 0 0
lhand -12.129 -23.9135 0
lfingers 7.12502 0 0
lthumb 13.9327 5.59848 0
rclavicle -1.21125e-14 -1.60206e-14 0
rhumerus -45.3529 11.0281 -88.1877
rradius 35.3131 0 0
rwrist -14.2492 0 0
rhand -31.8733 -29.4003 0
rfingers 7.12502 0 0
rthumb -5.12637 -59.3165 0
456
root 10.8095 17.4233 27.9728 4.90819 1.4856 1.62603
lfemur -17.1798 3.6382 -27.6669
ltibia 26.6002 0 0
lfoot -14.2998 4.59288 0
ltoes 1.13036 0 0
rfemur -23.2804 -1.48014 18.1681
rtibia 63.6213 0 0
rfoot -13.4072 -8.52423 0
rtoes -17.9476 0 0
lowerback -4.89201 -1.86332 -2.53434
upperback -1.27059 -2.38847 1.76697
thorax 1.61455 -1.20362 3.08956
lowerneck -21.3565 -3.50919 -11.1514
upperneck 24.4543 -4.1327 10.4386
head 12.051 -1.56196 5.16326
lclavicle -1.71913e-14 -1.82422e-14 0
lhumerus -22.3626 -15.1996 89.1803
lradius 21.7487 0 0
lwrist -2.74814 0 0
lhand -12.4368 -24.004 0
lfingers 7.12502 0 0
lthumb 13.636 5.52871 0
rclavicle -1.71913e-14 -1.82422e-14 0
rhumerus -45.3379 11.137 -88.0985
rradius 35.6206 0 0
rwrist -14.7937 0 0
rhand -31.4298 -30.3158 0
rfingers 7.12502 0 0
rthumb -4.69822 -60.2436 0
457
root 10.8166 17.4157 28.0867 4.79162 1.70604 1.75197
lfemur -16.5693 3.59777 -27.7847
ltibia 26.5944 0 0
lfoot -14.7058 4.47352 0
ltoes 1.5269 0 0
rfemur -24.1651 -1.36515 18.0369
rtibia 63.0314 0 0
rfoot -14.3694 -8.55259 0
rtoes -17.6029 0 0
lowerback -4.84004 -2.06008 -2.69364
upperback -1.16171 -2.64446 1.79234
thorax 1.72272 -1.33488 3.18753
lowerneck -21.4521 -3.40652 -11.0627
upperneck 24.4881 -4.00395 10.4216
head 12.0632 -1.49618 5.16479
lclavicle -1.88597e-14 -1.82882e-14 0
lhumerus -21.4787 -15.8522 88.9576
lradius 22.0905 0 0
lwrist -2.24018 0 0
lhand -12.6778 -24.0634 0
lfingers 7.12502 0 0
lthumb 13.4038 5.48541 0
rclavicle -1.88597e-14 -1.82882e-14 0
rhumerus -45.3615 11.1858 -87.9854
rradius 35.9427 0 0
rwrist -15.3071 0 0
rhand -31.3108 -30.5705 0
rfingers 7.12502 0 0
rthumb -4.58327 -60.5009 0
458
root 10.8246 17.4113 28.2046 4.7094 1.93336 1.90126
lfemur -16.0199 3.52182 -27.9265
ltibia 26.6186 0 0
lfoot -15.1323 4.35634 0
ltoes 2.00924 0 0
rfemur -25.0567 -1.28152 17.8614
rtibia 62.3466 0 0
rfoot -15.1613 -8.54376 0
rtoes -17.4959 0 0
lowerback -4.79712 -2.24283 -2.84079
upperback -1.08827 -2.88183 1.79817
thorax 1.79884 -1.45611 3.26006
lowerneck -21.5034 -3.3129 -10.9867
upperneck 24.5402 -3.88139 10.3795
head 12.0742 -1.43863 5.15784
lclavicle -1.59176e-14 -1.5196e-14 0
lhumerus -20.6706 -16.3948 88.7238
lradius 22.4762 0 0
lwrist -1.73044 0 0
lhand -12.8399 -24.0784 0
lfingers 7.12502 0 0
lthumb 13.2476 5.48109 0
rclavicle -1.59176e-14 -1.5196e-14 0
rhumerus -45.4617 11.1618 -87.844
rradius 36.296 0 0
rwrist -15.8111 0 0
rhand -31.7165 -29.7703 0
rfingers 7.12502 0 0
rthumb -4.97491 -59.6901 0
459
root 10.8325 17.407 28.3226 4.65149 2.1705 2.08669
lfemur -15.5196 3.42482 -28.1084
ltibia 26.6831 0 0
lfoot -15.5817 4.22899 0
ltoes 2.60228 0 0
rfemur -25.9399 -1.2322 17.6246
rtibia 61.5557 0 0
rfoot -15.804 -8.49167 0
rtoes -17.5011 0 0
lowerback -4.76257 -2.41527 -2.99492
upperback -1.05185 -3.1047 1.78355
thorax 1.84139 -1.56924 3.31691
lowerneck -21.4846 -3.22164 -10.9327
upperneck 24.6036 -3.75983 10.3263
head 12.0763 -1.38684 5.15023
lclavicle -9.41327e-15 -9.45331e-15 0
lhumerus -19.949 -16.8573 88.4767
lradius 22.9067 0 0
lwrist -1.20353 0 0
lhand -12.9532 -24.058 0
lfingers 7.12502 0 0
lthumb 13.1384 5.50884 0
rclavicle -9.41327e-15 -9.45331e-15 0
rhumerus -45.6461 11.085 -87.6868
rradius 36.677 0 0
rwrist -16.3359 0 0
rhand -32.5633 -28.0734 0
rfingers 7.12502 0 0
rthumb -5.79249 -57.972 0
460
root 10.8404 17.4027 28.4405 4.6081 2.41192 2.28738
lfemur -15.0335 3.31499 -28.3056
ltibia 26.7424 0 0
lfoot -16.0281 4.10072 0
ltoes 3.23171 0 0
rfemur -26.8053 -1.19245 17.3547
rtibia 60.6715 0 0
rfoot -16.3357 -8.4279 0
rtoes -17.5633 0 0
lowerback -4.73742 -2.58025 -3.14974
upperback -1.03178 -3.31722 1.75786
thorax 1.87246 -1.677 3.36304
lowerneck -21.4312 -3.13545 -10.8909
upperneck 24.6682 -3.64398 10.2682
head 12.0731 -1.34029 5.14166
lclavicle -1.10883e-15 -2.3854e-15 0
lhumerus -19.2775 -17.2573 88.2138
lradius 23.3656 0 0
lwrist -0.658862 0 0
lhand -13.04 -24.0209 0
lfingers 7.12502 0 0
lthumb 13.0547 5.55127 0
rclavicle -1.10883e-15 -2.3854e-15 0
rhumerus -45.8692 10.9766 -87.5224
rradius 37.0638 0 0
rwrist -16.8622 0 0
rhand -33.58 -26.012 0
rfingers 7.12502 0 0
rthumb -6.77411 -55.8846 0
461
root 10.8484 17.3983 28.5585 4.56948 2.65204 2.48243
lfemur -14.5269 3.20055 -28.4932
ltibia 26.7512 0 0
lfoot -16.4455 3.98074 0
ltoes 3.8232 0 0
rfemur -27.6433 -1.13753 17.0797
rtibia 59.707 0 0
rfoot -16.7948 -8.38407 0
rtoes -17.6275 0 0
lowerback -4.72272 -2.74062 -3.29893
upperback -1.00742 -3.52354 1.73046
thorax 1.91416 -1.78212 3.4034
lowerneck -21.3783 -3.05706 -10.8512
upperneck 24.7241 -3.53856 10.2111
head 12.0682 -1.29842 5.13182
lclavicle 7.23358e-15 4.68251e-15 0
lhumerus -18.62 -17.6123 87.9324
lradius 23.8367 0 0
lwrist -0.0958341 0 0
lhand -13.123 -23.9862 0
lfingers 7.12502 0 0
lthumb 12.9747 5.59102 0
rclavicle 7.23358e-15 4.68251e-15 0
rhumerus -46.0854 10.8576 -87.3594
rradius 37.4349 0 0
rwrist -17.3706 0 0
rhand -34.4954 -24.1181 0
rfingers 7.12502 0 0
rthumb -7.65787 -53.9659 0
462
root 10.8564 17.394 28.6764 4.52586 2.88532 2.65095
lfemur -13.9653 3.08973 -28.6464
ltibia 26.664 0 0
lfoot -16.8079 3.87831 0
ltoes 4.30246 0 0
rfemur -28.4443 -1.04269 16.8277
rtibia 58.6751 0 0
rfoot -17.2195 -8.39176 0
rtoes -17.6383 0 0
lowerback -4.71951 -2.89921 -3.4362
upperback -0.958085 -3.72781 1.71072
thorax 1.98859 -1.88735 3.44295
lowerneck -21.3613 -2.98918 -10.8036
upperneck 24.7613 -3.44828 10.161
head 12.0653 -1.2607 5.12043
lclavicle 1.38518e-14 1.04252e-14 0
lhumerus -17.94 -17.9397 87.6299
lradius 24.3036 0 0
lwrist 0.486148 0 0
lhand -13.2244 -23.9724 0
lfingers 7.12502 0 0
lthumb 12.8769 5.61072 0
rclavicle 1.38518e-14 1.04252e-14 0
rhumerus -46.2489 10.7491 -87.2067
rradius 37.7686 0 0
rwrist -17.8417 0 0
rhand -35.0383 -22.9239 0
rfingers 7.12502 0 0
rthumb -8.1819 -52.7541 0
